<mxfile host="app.diagrams.net" modified="2023-10-28T04:55:28.362Z" agent="Mozilla/5.0 (Windows NT 10.0; Win64; x64) AppleWebKit/537.36 (KHTML, like Gecko) Chrome/118.0.0.0 Safari/537.36" version="21.3.6" etag="HiPBtJ-5l4i0bM-17KN3" type="github">
  <diagram name="第 1 页" id="z8iiXClud8CUr2dZPSpm">
    <mxGraphModel>
      <root>
        <mxCell id="0" />
        <mxCell id="1" parent="0" />
      </root>
    </mxGraphModel>
  </diagram>
</mxfile>
